<mxfile host="app.diagrams.net" modified="2023-04-29T17:17:06.860Z" agent="Mozilla/5.0 (Macintosh; Intel Mac OS X 10.15; rv:109.0) Gecko/20100101 Firefox/112.0" version="21.2.3" etag="sQubZcJbmobnIt4rY9w2" type="github">
  <diagram name="Page-1" id="I9IH0z4E6mDPvlcipsZQ">
    <mxGraphModel>
      <root>
        <mxCell id="0" />
        <mxCell id="1" parent="0" />
      </root>
    </mxGraphModel>
  </diagram>
</mxfile>
